#N canvas 0 22 1299 1347 10;
#X obj 6 630 vs-multiplex \$0 1;
#X obj 316 630 vs-multiplex \$0 2;
#X obj 1314 204 cnv 15 200 150 empty empty empty 20 12 0 14 -4034 -66577
0;
#X obj 1312 378 cnv 15 200 150 empty empty empty 20 12 0 14 -4034 -66577
0;
#X text 1315 381 INLETS;
#X text 1319 205 OUTPUT CHANNELS;
#X text 1338 223 1) X axis signal;
#X text 1338 243 2) Y axis signal;
#X text 1338 262 3) Brightness signal;
#X text 1338 281 4) RGB (used for ILDA);
#X text 1338 301 5) Audio Left;
#X text 1338 321 6) Audio Right;
#X text 1338 400 1) X axis signal;
#X text 1338 420 2) Y axis signal;
#X text 1338 439 3) Brightness signal;
#X text 1338 460 4) Audio Left;
#X text 1338 478 5) Audio Right;
#X obj 983 377 vs-audiodac-gui \$0 dac-one;
#A saved 85 0 2 3 1 1 50 0 0 0 1 2 100;
#X obj 986 207 vs-multiplex-gui \$0 multiplex-one;
#A saved 25 3 0 1;
#X obj 5 183 vs-rotate-gui \$0 \$0-rotate-one;
#A saved 23 33 55 0 0 0 1 8 20 -22;
#X obj 316 545 vs-translate-gui \$0 \$0-translate-two;
#A saved 0 -100 0;
#X obj 6 544 vs-translate-gui \$0 \$0-translate-one;
#A saved 0 0 0;
#X obj 315 336 vs-rotate-gui \$0 \$0-rotate-two;
#A saved 0 0 90 0 0 0 1 0 0 0;
#X obj 983 532 switch~;
#X obj 632 632 vs-multiplex \$0 3;
#X obj 630 336 vs-rotate-gui \$0 \$0-rotate-three;
#A saved 0 0 0 0 0 0 1 0 0 0;
#X obj 632 547 vs-translate-gui \$0 \$0-translate-three;
#A saved -100 0 0;
#X floatatom 782 94 5 0 0 0 - - -;
#X obj 706 109 / 100;
#X obj 632 139 /~;
#X obj 6 34 vs-3D-data-gui \$0 \$0-3d-data-one;
#A saved 25 0 2 0 4 56 83 0;
#X connect 17 0 23 0;
#X connect 18 0 17 0;
#X connect 18 1 17 1;
#X connect 18 2 17 2;
#X connect 18 4 17 3;
#X connect 18 5 17 4;
#X connect 19 0 21 0;
#X connect 19 0 22 1;
#X connect 19 1 21 1;
#X connect 19 1 25 1;
#X connect 19 2 21 2;
#X connect 19 3 21 3;
#X connect 20 0 1 0;
#X connect 20 1 1 1;
#X connect 20 3 1 2;
#X connect 21 0 0 0;
#X connect 21 1 0 1;
#X connect 21 3 0 2;
#X connect 22 0 20 0;
#X connect 22 1 20 1;
#X connect 22 2 20 2;
#X connect 22 3 20 3;
#X connect 25 0 26 0;
#X connect 25 1 26 1;
#X connect 25 2 26 2;
#X connect 25 3 26 3;
#X connect 26 0 24 0;
#X connect 26 1 24 1;
#X connect 26 3 24 2;
#X connect 27 0 28 0;
#X connect 28 0 29 1;
#X connect 29 0 25 0;
#X connect 29 0 22 0;
#X connect 30 0 19 0;
#X connect 30 1 19 1;
#X connect 30 2 19 2;
#X connect 30 3 19 3;
#X connect 30 3 22 3;
#X connect 30 3 25 3;
#X connect 30 4 29 0;
